<svg width="44" height="42" viewBox="0 0 44 42" fill="none" xmlns="http://www.w3.org/2000/svg">
<rect width="43.0909" height="41.2727" rx="20.6364" fill="#71DD37"/>
<path fill-rule="evenodd" clip-rule="evenodd" d="M17.4486 3.43578C21.3593 2.5933 25.4504 2.97925 29.1094 4.53377C29.6178 4.74973 30.2049 4.51273 30.4208 4.00442C30.6368 3.4961 30.3998 2.90897 29.8915 2.69301C25.8506 0.976247 21.3391 0.551782 17.0274 1.48064C12.7155 2.40955 8.82596 4.6442 5.94292 7.86045C3.05919 11.0775 1.33778 15.1041 1.04476 19.3412C0.751721 23.5784 1.90373 27.7884 4.32194 31.3423C6.73954 34.8953 10.2909 37.5995 14.4397 39.061C18.5881 40.5224 23.1188 40.6657 27.3586 39.4704C31.5988 38.275 35.3288 35.8024 37.987 32.412C40.6459 29.0207 42.0884 24.8942 42.0909 20.6476V20.647V18.9325C42.0909 18.3802 41.6432 17.9325 41.0909 17.9325C40.5386 17.9325 40.0909 18.3802 40.0909 18.9325V20.6464C40.0886 24.4374 38.8015 28.1317 36.4131 31.178C34.024 34.2251 30.6595 36.4619 26.8159 37.5454C22.9721 38.6291 18.863 38.4987 15.1042 37.1746C11.3457 35.8507 8.14593 33.407 5.97545 30.2172C3.80559 27.0283 2.77838 23.262 3.03999 19.4791C3.30161 15.6961 4.839 12.0883 7.43218 9.19541C10.0261 6.30173 13.5381 4.27821 17.4486 3.43578ZM41.7813 6.46133C42.1809 6.08001 42.1956 5.44702 41.8143 5.0475C41.433 4.64798 40.8 4.63323 40.4005 5.01454L21.5451 23.0109L16.3719 18.0783C15.9722 17.6972 15.3392 17.7122 14.9581 18.1119C14.577 18.5117 14.592 19.1446 14.9918 19.5258L20.8554 25.1167C21.2418 25.4852 21.8496 25.485 22.2359 25.1163L41.7813 6.46133Z" fill="black"/>
</svg>
