<svg width="71" height="88" viewBox="0 0 71 88" fill="none" xmlns="http://www.w3.org/2000/svg">
<path fill-rule="evenodd" clip-rule="evenodd" d="M2.78646 2.78646C4.5706 1.00232 6.99042 0 9.51357 0H43.5679C43.8385 0 44.0841 0.107538 44.2641 0.28222L44.275 0.292893L69.8157 25.8336C69.8391 25.8571 69.8613 25.8815 69.8821 25.907C70.0091 26.0619 70.0866 26.2515 70.1046 26.4511C70.1072 26.4808 70.1086 26.5107 70.1086 26.5407V77.6222C70.1086 80.1453 69.1063 82.5651 67.3221 84.3493C65.538 86.1334 63.1182 87.1357 60.595 87.1357H9.51357C6.99042 87.1357 4.5706 86.1334 2.78646 84.3493C1.00232 82.5651 0 80.1453 0 77.6222V9.51357C0 6.99042 1.00232 4.5706 2.78646 2.78646ZM9.51357 2H42.5679V26.5407C42.5679 27.093 43.0156 27.5407 43.5679 27.5407H68.1086V77.6222C68.1086 79.6149 67.317 81.526 65.9079 82.9351C64.4989 84.3441 62.5877 85.1357 60.595 85.1357H9.51357C7.52085 85.1357 5.60974 84.3441 4.20067 82.9351C2.79161 81.526 2 79.6149 2 77.6222V9.51357C2 7.52085 2.79161 5.60974 4.20067 4.20067C5.60974 2.79161 7.52085 2 9.51357 2ZM44.5679 3.41421L66.6944 25.5407H44.5679V3.41421ZM18.0271 46.8247C17.4749 46.8247 17.0271 47.2724 17.0271 47.8247C17.0271 48.3769 17.4749 48.8247 18.0271 48.8247H52.0814C52.6337 48.8247 53.0814 48.3769 53.0814 47.8247C53.0814 47.2724 52.6337 46.8247 52.0814 46.8247H18.0271ZM17.0271 64.8518C17.0271 64.2995 17.4749 63.8518 18.0271 63.8518H52.0814C52.6337 63.8518 53.0814 64.2995 53.0814 64.8518C53.0814 65.4041 52.6337 65.8518 52.0814 65.8518H18.0271C17.4749 65.8518 17.0271 65.4041 17.0271 64.8518ZM18.0271 29.7975C17.4749 29.7975 17.0271 30.2452 17.0271 30.7975C17.0271 31.3498 17.4749 31.7975 18.0271 31.7975H22.2839H26.5407C27.093 31.7975 27.5407 31.3498 27.5407 30.7975C27.5407 30.2452 27.093 29.7975 26.5407 29.7975H22.2839H18.0271Z" fill="#09232E"/>
</svg>
